<svg width="40" height="40" viewBox="0 0 40 40" fill="none" xmlns="http://www.w3.org/2000/svg">
<rect x="0.5" y="-0.5" width="39" height="39" rx="19.5" transform="matrix(1 0 0 -1 0 39)" stroke="black"/>
<path d="M10.069 12H29.3033C29.4981 12.0006 29.689 12.0543 29.8554 12.1553C30.0219 12.2564 30.1577 12.4009 30.2482 12.5733C30.3386 12.7458 30.3803 12.9397 30.3688 13.1341C30.3573 13.3285 30.293 13.516 30.1828 13.6766L20.5656 27.568C20.167 28.144 19.2075 28.144 18.8078 27.568L9.19067 13.6766C9.07936 13.5164 9.01408 13.3287 9.00193 13.134C8.98978 12.9393 9.03123 12.7449 9.12177 12.5721C9.21231 12.3993 9.34848 12.2546 9.51548 12.1537C9.68249 12.0529 9.87394 11.9997 10.069 12Z" fill="black"/>
</svg>
