<svg xmlns="http://www.w3.org/2000/svg" width="40" height="40" viewBox="0 0 40 40" fill="none">
  <path d="M36.3425 16.7365H35V16.6673H20V23.334H29.4192C28.045 27.2148 24.3525 30.0007 20 30.0007C14.4775 30.0007 10 25.5231 10 20.0007C10 14.4782 14.4775 10.0007 20 10.0007C22.5492 10.0007 24.8683 10.9623 26.6342 12.5332L31.3483 7.81898C28.3717 5.04482 24.39 3.33398 20 3.33398C10.7958 3.33398 3.33334 10.7965 3.33334 20.0007C3.33334 29.2048 10.7958 36.6673 20 36.6673C29.2042 36.6673 36.6667 29.2048 36.6667 20.0007C36.6667 18.8832 36.5517 17.7923 36.3425 16.7365Z" fill="#FFC107"/>
  <path d="M5.255 12.2432L10.7308 16.259C12.2125 12.5907 15.8008 10.0007 20 10.0007C22.5492 10.0007 24.8683 10.9623 26.6342 12.5332L31.3483 7.81898C28.3717 5.04482 24.39 3.33398 20 3.33398C13.5983 3.33398 8.04666 6.94815 5.255 12.2432Z" fill="#FF3D00"/>
  <path d="M20 36.6672C24.305 36.6672 28.2167 35.0197 31.1742 32.3406L26.0158 27.9756C24.2863 29.2909 22.1729 30.0023 20 30.0006C15.665 30.0006 11.9842 27.2364 10.5975 23.3789L5.1625 27.5664C7.92083 32.9639 13.5225 36.6672 20 36.6672Z" fill="#4CAF50"/>
  <path d="M36.3425 16.7352H35V16.666H20V23.3327H29.4192C28.7618 25.1797 27.5778 26.7937 26.0133 27.9752L26.0158 27.9735L31.1742 32.3385C30.8092 32.6702 36.6667 28.3327 36.6667 19.9993C36.6667 18.8818 36.5517 17.791 36.3425 16.7352Z" fill="#1976D2"/>
</svg>