<svg xmlns="http://www.w3.org/2000/svg" width="41" height="40" viewBox="0 0 41 40" fill="none">
  <rect x="0.5" width="40" height="40" rx="20" fill="#148CFB"/>
  <path d="M12.2647 13.5294C13.2393 13.5294 14.0294 12.7393 14.0294 11.7647C14.0294 10.7901 13.2393 10 12.2647 10C11.2901 10 10.5 10.7901 10.5 11.7647C10.5 12.7393 11.2901 13.5294 12.2647 13.5294Z" fill="white" stroke="white" stroke-linecap="round"/>
  <path d="M12.2647 21.7638C13.2393 21.7638 14.0294 20.9737 14.0294 19.9991C14.0294 19.0245 13.2393 18.2344 12.2647 18.2344C11.2901 18.2344 10.5 19.0245 10.5 19.9991C10.5 20.9737 11.2901 21.7638 12.2647 21.7638Z" fill="white" stroke="white" stroke-linecap="round"/>
  <path d="M12.2647 30.0001C13.2393 30.0001 14.0294 29.21 14.0294 28.2354C14.0294 27.2608 13.2393 26.4707 12.2647 26.4707C11.2901 26.4707 10.5 27.2608 10.5 28.2354C10.5 29.21 11.2901 30.0001 12.2647 30.0001Z" fill="white" stroke="white" stroke-linecap="round"/>
  <path d="M28.7353 10H19.3235C18.3489 10 17.5588 10.7901 17.5588 11.7647C17.5588 12.7393 18.3489 13.5294 19.3235 13.5294H28.7353C29.7099 13.5294 30.5 12.7393 30.5 11.7647C30.5 10.7901 29.7099 10 28.7353 10Z" fill="white" stroke="white" stroke-linecap="round"/>
  <path d="M28.7353 18.2344H19.3235C18.3489 18.2344 17.5588 19.0245 17.5588 19.9991C17.5588 20.9737 18.3489 21.7638 19.3235 21.7638H28.7353C29.7099 21.7638 30.5 20.9737 30.5 19.9991C30.5 19.0245 29.7099 18.2344 28.7353 18.2344Z" fill="white" stroke="white" stroke-linecap="round"/>
  <path d="M28.7353 26.4707H19.3235C18.3489 26.4707 17.5588 27.2608 17.5588 28.2354C17.5588 29.21 18.3489 30.0001 19.3235 30.0001H28.7353C29.7099 30.0001 30.5 29.21 30.5 28.2354C30.5 27.2608 29.7099 26.4707 28.7353 26.4707Z" fill="white" stroke="white" stroke-linecap="round"/>
</svg>