<svg width="40" height="40" viewBox="0 0 40 40" fill="none" xmlns="http://www.w3.org/2000/svg">
<rect x="0.5" y="0.5" width="39" height="39" rx="19.5" stroke="black"/>
<path d="M10.069 28H29.3033C29.4981 27.9994 29.689 27.9457 29.8554 27.8447C30.0219 27.7436 30.1577 27.5991 30.2482 27.4267C30.3386 27.2542 30.3803 27.0603 30.3688 26.8659C30.3573 26.6715 30.293 26.484 30.1828 26.3234L20.5656 12.432C20.167 11.856 19.2075 11.856 18.8078 12.432L9.19067 26.3234C9.07936 26.4836 9.01408 26.6713 9.00193 26.866C8.98978 27.0607 9.03123 27.2551 9.12177 27.4279C9.21231 27.6007 9.34848 27.7454 9.51548 27.8463C9.68249 27.9471 9.87394 28.0003 10.069 28Z" fill="black"/>
</svg>
