<svg width="174" height="36" viewBox="0 0 174 36" fill="none" xmlns="http://www.w3.org/2000/svg">
<path d="M5.105 31H0.765V2.16H5.105V14.305H19.28V2.16H23.62V31H19.28V18.295H5.105V31ZM32.3921 8.775C30.9571 8.775 29.4871 7.62 29.4871 5.94C29.4871 4.295 30.9571 3.14 32.3921 3.14C33.8621 3.14 35.2971 4.295 35.2971 5.94C35.2971 7.62 33.8271 8.775 32.3921 8.775ZM34.5271 31H30.2921V12.17H34.5271V31ZM42.1416 35.69H38.2916L39.9716 26.17H44.4166L42.1416 35.69ZM67.4367 31H57.7767V2.16H66.6317C73.0367 2.16 76.2917 5.94 76.2917 9.79C76.2917 13.675 73.4567 15.32 72.5117 15.95C74.7167 16.86 77.5867 18.89 77.5867 22.95C77.5867 27.255 74.1917 31 67.4367 31ZM62.1167 6.01V14.55H66.5617C69.7467 14.55 71.8117 12.625 71.8117 10.245C71.8117 7.97 69.8867 6.01 66.5967 6.01H62.1167ZM62.1167 18.365V27.15H67.5767C71.1817 27.15 73.1067 25.19 73.1067 22.74C73.1067 20.325 71.0767 18.365 67.4717 18.365H62.1167ZM87.7909 31.49C84.7109 31.49 82.1559 30.65 80.6859 30.02V25.61C82.8909 26.905 85.7259 27.745 87.7559 27.745C89.7509 27.745 90.6609 27.045 90.6609 25.82C90.6609 24.63 89.6809 24 87.2659 23.405C82.5759 22.25 80.6159 20.22 80.6159 17.175C80.6159 13.815 83.3809 11.785 87.7909 11.785C90.2409 11.785 92.4459 12.31 93.9859 12.8V17.21C91.9909 16.195 89.6459 15.53 87.7909 15.53C85.8659 15.53 84.9559 16.125 84.9559 17.175C84.9559 18.225 85.7609 18.855 88.3509 19.52C92.8659 20.675 95.0009 22.565 95.0009 25.82C95.0009 29.18 92.2359 31.49 87.7909 31.49ZM103.365 31H99.13V12.17H103.225V14.48C103.96 13.465 105.605 11.715 108.755 11.715C111.94 11.715 113.515 13.85 114.11 14.725C114.705 13.85 116.56 11.715 120.375 11.715C124.19 11.715 127.62 13.85 127.62 19.555V31H123.385V19.59C123.385 17.035 121.915 15.635 119.71 15.635C117.575 15.635 115.51 17.28 115.51 20.71V31H111.31V19.59C111.31 17.07 109.84 15.635 107.95 15.635C106.095 15.635 103.365 17.49 103.365 21.655V31ZM134.658 8.775C133.223 8.775 131.753 7.62 131.753 5.94C131.753 4.295 133.223 3.14 134.658 3.14C136.128 3.14 137.563 4.295 137.563 5.94C137.563 7.62 136.093 8.775 134.658 8.775ZM136.793 31H132.558V12.17H136.793V31ZM150.287 31.35C146.542 31.35 143.812 29.04 143.812 24.7V15.81H139.822V12.17H143.812V7.515H148.047V12.17H153.437V15.81H148.047V24.595C148.047 26.31 148.782 27.36 150.672 27.36C151.757 27.36 152.737 27.185 153.437 27.045V30.895C152.597 31.14 151.722 31.35 150.287 31.35ZM161.539 31H157.304V0.899999H161.539V8.845C161.539 10.77 161.469 12.625 161.399 14.515C162.134 13.465 163.849 11.715 167.069 11.715C170.289 11.715 173.894 13.815 173.894 19.485V31H169.694V19.52C169.694 16.965 168.049 15.635 166.194 15.635C164.339 15.635 161.539 17.42 161.539 21.655V31Z" fill="black"/>
</svg>
