<svg width="345" height="56" viewBox="0 0 345 56" fill="none" xmlns="http://www.w3.org/2000/svg">
<rect width="345" height="56" rx="28" fill="#148CFB"/>
<path d="M115.28 26.64C117.04 26.94 117.9 28.5 117.9 30.06C117.9 31.96 116.6 34 113.56 34H107.68V20.22H113.14C115.6 20.22 117.18 21.7 117.18 23.78C117.18 24.8 116.78 26.18 115.28 26.64ZM114.4 24.18C114.4 23.34 113.96 22.68 112.98 22.68H110.46V25.7H112.98C113.86 25.7 114.4 25.12 114.4 24.18ZM110.46 31.54H113.16C114.46 31.54 115.1 30.7 115.1 29.78C115.1 28.92 114.52 28.02 113.2 28.02H110.46V31.54ZM127.094 25.9V24.66H129.714V34H127.094V32.66C126.474 33.62 125.274 34.24 124.014 34.24C121.434 34.24 119.514 32.24 119.514 29.34C119.514 26.44 121.394 24.42 124.074 24.42C125.274 24.42 126.474 24.94 127.094 25.9ZM124.594 31.8C125.914 31.8 127.014 30.68 127.014 29.34C127.014 27.92 125.874 26.86 124.574 26.86C123.214 26.86 122.194 27.98 122.194 29.34C122.194 30.64 123.214 31.8 124.594 31.8ZM134.979 34H132.359V19.58H134.979V34ZM144.633 25.9V24.66H147.253V34H144.633V32.66C144.013 33.62 142.813 34.24 141.553 34.24C138.973 34.24 137.053 32.24 137.053 29.34C137.053 26.44 138.933 24.42 141.613 24.42C142.813 24.42 144.013 24.94 144.633 25.9ZM142.133 31.8C143.453 31.8 144.553 30.68 144.553 29.34C144.553 27.92 143.413 26.86 142.113 26.86C140.753 26.86 139.733 27.98 139.733 29.34C139.733 30.64 140.753 31.8 142.133 31.8ZM155.318 24.42C157.758 24.42 159.038 26.08 159.018 28.88V34H156.398V29.02C156.398 27.56 155.518 26.9 154.618 26.9C153.678 26.9 152.518 27.4 152.518 29.1V34H149.898V24.66H152.518V26.18C152.958 24.96 154.418 24.42 155.318 24.42ZM166.079 34.24C163.359 34.24 160.959 32.26 160.959 29.3C160.959 26.34 163.359 24.42 166.079 24.42C167.779 24.42 169.139 25.2 170.019 26.42L168.039 27.8C167.619 27.22 166.839 26.86 166.099 26.86C164.619 26.86 163.619 27.94 163.619 29.3C163.619 30.68 164.619 31.8 166.099 31.8C166.839 31.8 167.619 31.44 168.039 30.86L170.019 32.24C169.139 33.46 167.779 34.24 166.079 34.24ZM180.994 29.18C180.994 29.44 180.974 29.76 180.934 30.18H173.914C174.194 31.28 175.074 31.92 176.314 31.92C177.274 31.92 178.194 31.48 178.774 30.82L180.294 32.36C179.414 33.54 177.794 34.24 176.154 34.24C173.274 34.24 171.174 32.22 171.174 29.34C171.174 26.32 173.474 24.42 176.134 24.42C178.814 24.42 180.994 26.32 180.994 29.18ZM173.914 28.48H178.354C178.274 27.38 177.374 26.68 176.194 26.68C175.114 26.68 174.194 27.22 173.914 28.48ZM192.329 34.24C189.389 34.24 187.369 32.42 187.369 30H190.149C190.169 30.98 191.129 31.8 192.409 31.8C193.649 31.8 194.469 31.12 194.469 30.14C194.469 29.38 193.909 28.84 192.729 28.48L191.049 28C188.029 27.2 187.489 25.38 187.489 24.14C187.489 21.68 189.609 19.98 192.249 19.98C194.849 19.98 196.849 21.56 196.849 24.18H194.069C194.069 23.2 193.389 22.44 192.189 22.44C191.109 22.44 190.289 23.16 190.289 24.08C190.289 24.42 190.389 25.12 191.829 25.54L193.369 25.98C195.449 26.6 197.269 27.66 197.269 30C197.269 32.74 194.929 34.24 192.329 34.24ZM204.771 24.42C207.211 24.42 208.491 26.08 208.471 28.88V34H205.851V29.04C205.851 27.58 204.971 26.9 204.071 26.9C203.131 26.9 201.971 27.42 201.971 29.1V34H199.351V19.58H201.971V26.14C202.371 24.94 203.871 24.42 204.771 24.42ZM220.252 29.18C220.252 29.44 220.232 29.76 220.192 30.18H213.172C213.452 31.28 214.332 31.92 215.572 31.92C216.532 31.92 217.452 31.48 218.032 30.82L219.552 32.36C218.672 33.54 217.052 34.24 215.412 34.24C212.532 34.24 210.432 32.22 210.432 29.34C210.432 26.32 212.732 24.42 215.392 24.42C218.072 24.42 220.252 26.32 220.252 29.18ZM213.172 28.48H217.612C217.532 27.38 216.632 26.68 215.452 26.68C214.372 26.68 213.452 27.22 213.172 28.48ZM231.541 29.18C231.541 29.44 231.521 29.76 231.481 30.18H224.461C224.741 31.28 225.621 31.92 226.861 31.92C227.821 31.92 228.741 31.48 229.321 30.82L230.841 32.36C229.961 33.54 228.341 34.24 226.701 34.24C223.821 34.24 221.721 32.22 221.721 29.34C221.721 26.32 224.021 24.42 226.681 24.42C229.361 24.42 231.541 26.32 231.541 29.18ZM224.461 28.48H228.901C228.821 27.38 227.921 26.68 226.741 26.68C225.661 26.68 224.741 27.22 224.461 28.48ZM236.953 24.66H238.933V26.7H236.953V34H234.333V26.7H232.633V24.66H234.333V21.26H236.953V24.66Z" fill="white"/>
</svg>
