<svg width="345" height="56" viewBox="0 0 345 56" fill="none" xmlns="http://www.w3.org/2000/svg">
<rect width="345" height="56" rx="28" fill="#148CFB"/>
<path d="M132.84 34.24C128.94 34.24 125.84 31.02 125.84 27.1C125.84 23.22 128.94 19.98 132.84 19.98C135.18 19.98 137.22 21.1 138.46 22.84L136.34 24.38C135.56 23.28 134.4 22.6 132.94 22.6C130.44 22.6 128.62 24.64 128.62 27.1C128.62 29.56 130.42 31.62 132.92 31.62C134.4 31.62 135.56 30.94 136.34 29.84L138.46 31.38C137.22 33.12 135.18 34.24 132.84 34.24ZM147.207 25.9V24.66H149.827V34H147.207V32.66C146.587 33.62 145.387 34.24 144.127 34.24C141.547 34.24 139.627 32.24 139.627 29.34C139.627 26.44 141.507 24.42 144.187 24.42C145.387 24.42 146.587 24.94 147.207 25.9ZM144.707 31.8C146.027 31.8 147.127 30.68 147.127 29.34C147.127 27.92 145.987 26.86 144.687 26.86C143.327 26.86 142.307 27.98 142.307 29.34C142.307 30.64 143.327 31.8 144.707 31.8ZM155.772 34.24C153.812 34.24 151.912 33.12 151.892 31.06H154.352C154.352 31.6 154.812 32.18 155.732 32.18C156.492 32.18 157.072 31.8 157.072 31.26C157.072 30.86 156.752 30.66 156.052 30.48L154.812 30.18C152.412 29.54 152.092 28.2 152.092 27.22C152.092 25.78 153.592 24.42 155.752 24.42C157.452 24.42 159.452 25.24 159.432 27.46H156.932C156.932 26.82 156.412 26.48 155.792 26.48C155.192 26.48 154.712 26.82 154.712 27.3C154.712 27.74 155.112 27.96 155.632 28.1L157.172 28.5C159.412 29.1 159.692 30.5 159.692 31.26C159.692 33.22 157.692 34.24 155.772 34.24ZM167.17 24.42C169.61 24.42 170.89 26.08 170.87 28.88V34H168.25V29.04C168.25 27.58 167.37 26.9 166.47 26.9C165.53 26.9 164.37 27.42 164.37 29.1V34H161.75V19.58H164.37V26.14C164.77 24.94 166.27 24.42 167.17 24.42ZM187.036 20.22V22.68H181.296V26H185.856V28.44H181.296V34H178.516V20.22H187.036ZM191.518 34H188.898V19.58H191.518V34ZM198.592 34.24C195.932 34.24 193.572 32.28 193.572 29.34C193.572 26.38 195.932 24.42 198.592 24.42C201.252 24.42 203.612 26.38 203.612 29.34C203.612 32.28 201.252 34.24 198.592 34.24ZM198.592 31.8C199.892 31.8 200.952 30.78 200.952 29.34C200.952 27.88 199.892 26.86 198.592 26.86C197.292 26.86 196.232 27.88 196.232 29.34C196.232 30.78 197.292 31.8 198.592 31.8ZM214.679 30.36L216.439 24.66H219.279L215.979 34H213.739L211.819 27.94L209.959 34H207.719L204.319 24.66H207.159L208.919 30.36L210.699 24.66H212.899L214.679 30.36Z" fill="white"/>
</svg>
