<svg width="1440" height="1024" viewBox="0 0 1440 1024" fill="none" xmlns="http://www.w3.org/2000/svg">
<rect width="1440" height="1024" fill="white"/>
<path d="M663.305 597.885H665.615V622H663.235L650.88 601.91V622H648.57V597.885H650.985L663.305 617.94V597.885ZM686.986 613.775C686.986 614.09 686.986 614.44 686.951 614.755H672.881C673.266 618.255 675.716 620.215 679.006 620.215C681.246 620.215 683.241 619.2 684.326 617.415L686.251 618.255C684.816 620.88 682.016 622.35 678.936 622.35C674.316 622.35 670.606 618.955 670.606 613.775C670.606 608.595 674.316 605.305 678.936 605.305C683.591 605.305 686.986 608.595 686.986 613.775ZM672.916 612.83H684.781C684.466 609.435 682.121 607.44 678.936 607.44C675.716 607.44 673.336 609.33 672.916 612.83ZM698.176 605.655V607.58H694.431V622H692.226V607.58H689.251V605.655H692.226V599.145H694.431V605.655H698.176ZM732.186 605.655H734.566L728.476 622H726.516L721.441 608.63L716.576 622H714.616L708.351 605.655H710.766L715.561 618.64L720.321 605.655H722.631L727.426 618.605L732.186 605.655ZM745.215 622.35C740.56 622.35 736.675 618.955 736.675 613.775C736.675 608.595 740.56 605.305 745.215 605.305C749.87 605.305 753.79 608.595 753.79 613.775C753.79 618.955 749.87 622.35 745.215 622.35ZM745.215 620.215C748.645 620.215 751.55 617.66 751.55 613.775C751.55 609.925 748.645 607.44 745.215 607.44C741.75 607.44 738.915 609.925 738.915 613.775C738.915 617.66 741.75 620.215 745.215 620.215ZM765.62 605.305C766.53 605.305 767.58 605.48 768.21 605.795L767.79 607.93C766.95 607.58 766.18 607.475 765.585 607.475C761.7 607.475 760.51 611.815 760.51 615.84V622H758.235V605.655H760.51V609.645C761.315 606.88 763.065 605.305 765.62 605.305ZM778.395 605.655V607.58H774.65V622H772.445V607.58H769.47V605.655H772.445V599.145H774.65V605.655H778.395ZM789.763 605.305C793.718 605.305 796.413 607.965 796.413 612.48V622H794.173V612.585C794.173 609.435 792.178 607.51 789.553 607.51C786.928 607.51 784.163 608.98 784.093 612.935V622H781.853V596.45H784.093V608.595C785.073 606.25 787.733 605.305 789.763 605.305Z" fill="black"/>
<path d="M636.36 560H631.656L634.104 552.128H628.728L629.928 547.76H635.304L637.704 539.648H632.424L633.624 535.28H639L641.448 526.928H646.344L643.848 535.28H649.416L651.912 526.928H656.712L654.216 535.28H659.64L658.44 539.648H652.968L650.52 547.76H655.944L654.696 552.128H649.272L646.728 560H641.976L644.424 552.128H638.856L636.36 560ZM642.552 539.648L640.104 547.76H645.624L648.12 539.648H642.552ZM670.719 560H666.015L668.463 552.128H663.087L664.287 547.76H669.663L672.063 539.648H666.783L667.983 535.28H673.359L675.807 526.928H680.703L678.207 535.28H683.775L686.271 526.928H691.071L688.575 535.28H693.999L692.799 539.648H687.327L684.879 547.76H690.303L689.055 552.128H683.631L681.087 560H676.335L678.783 552.128H673.215L670.719 560ZM676.911 539.648L674.463 547.76H679.983L682.479 539.648H676.911ZM705.079 560H700.375L702.823 552.128H697.447L698.647 547.76H704.023L706.423 539.648H701.143L702.343 535.28H707.719L710.167 526.928H715.063L712.567 535.28H718.135L720.631 526.928H725.431L722.935 535.28H728.359L727.159 539.648H721.687L719.239 547.76H724.663L723.415 552.128H717.991L715.447 560H710.695L713.143 552.128H707.575L705.079 560ZM711.271 539.648L708.823 547.76H714.343L716.839 539.648H711.271ZM736.366 560.432C734.206 560.432 732.382 558.8 732.382 556.544C732.382 554.336 734.206 552.704 736.366 552.704C738.574 552.704 740.446 554.336 740.446 556.544C740.446 558.8 738.574 560.432 736.366 560.432ZM752.094 560H747.39L749.838 552.128H744.462L745.662 547.76H751.038L753.438 539.648H748.158L749.358 535.28H754.734L757.182 526.928H762.078L759.582 535.28H765.15L767.646 526.928H772.446L769.95 535.28H775.374L774.174 539.648H768.702L766.254 547.76H771.678L770.43 552.128H765.006L762.462 560H757.71L760.158 552.128H754.59L752.094 560ZM758.286 539.648L755.838 547.76H761.358L763.854 539.648H758.286ZM786.454 560H781.75L784.198 552.128H778.822L780.022 547.76H785.398L787.798 539.648H782.518L783.718 535.28H789.094L791.542 526.928H796.438L793.942 535.28H799.51L802.006 526.928H806.806L804.31 535.28H809.734L808.534 539.648H803.062L800.614 547.76H806.038L804.79 552.128H799.366L796.822 560H792.07L794.518 552.128H788.95L786.454 560ZM792.646 539.648L790.198 547.76H795.718L798.214 539.648H792.646Z" fill="black"/>
<path d="M637.105 434H632.765V405.16H637.105V417.305H651.28V405.16H655.62V434H651.28V421.295H637.105V434ZM664.392 411.775C662.957 411.775 661.487 410.62 661.487 408.94C661.487 407.295 662.957 406.14 664.392 406.14C665.862 406.14 667.297 407.295 667.297 408.94C667.297 410.62 665.827 411.775 664.392 411.775ZM666.527 434H662.292V415.17H666.527V434ZM674.142 438.69H670.292L671.972 429.17H676.417L674.142 438.69ZM699.437 434H689.777V405.16H698.632C705.037 405.16 708.292 408.94 708.292 412.79C708.292 416.675 705.457 418.32 704.512 418.95C706.717 419.86 709.587 421.89 709.587 425.95C709.587 430.255 706.192 434 699.437 434ZM694.117 409.01V417.55H698.562C701.747 417.55 703.812 415.625 703.812 413.245C703.812 410.97 701.887 409.01 698.597 409.01H694.117ZM694.117 421.365V430.15H699.577C703.182 430.15 705.107 428.19 705.107 425.74C705.107 423.325 703.077 421.365 699.472 421.365H694.117ZM719.791 434.49C716.711 434.49 714.156 433.65 712.686 433.02V428.61C714.891 429.905 717.726 430.745 719.756 430.745C721.751 430.745 722.661 430.045 722.661 428.82C722.661 427.63 721.681 427 719.266 426.405C714.576 425.25 712.616 423.22 712.616 420.175C712.616 416.815 715.381 414.785 719.791 414.785C722.241 414.785 724.446 415.31 725.986 415.8V420.21C723.991 419.195 721.646 418.53 719.791 418.53C717.866 418.53 716.956 419.125 716.956 420.175C716.956 421.225 717.761 421.855 720.351 422.52C724.866 423.675 727.001 425.565 727.001 428.82C727.001 432.18 724.236 434.49 719.791 434.49ZM735.365 434H731.13V415.17H735.225V417.48C735.96 416.465 737.605 414.715 740.755 414.715C743.94 414.715 745.515 416.85 746.11 417.725C746.705 416.85 748.56 414.715 752.375 414.715C756.19 414.715 759.62 416.85 759.62 422.555V434H755.385V422.59C755.385 420.035 753.915 418.635 751.71 418.635C749.575 418.635 747.51 420.28 747.51 423.71V434H743.31V422.59C743.31 420.07 741.84 418.635 739.95 418.635C738.095 418.635 735.365 420.49 735.365 424.655V434ZM766.658 411.775C765.223 411.775 763.753 410.62 763.753 408.94C763.753 407.295 765.223 406.14 766.658 406.14C768.128 406.14 769.563 407.295 769.563 408.94C769.563 410.62 768.093 411.775 766.658 411.775ZM768.793 434H764.558V415.17H768.793V434ZM782.287 434.35C778.542 434.35 775.812 432.04 775.812 427.7V418.81H771.822V415.17H775.812V410.515H780.047V415.17H785.437V418.81H780.047V427.595C780.047 429.31 780.782 430.36 782.672 430.36C783.757 430.36 784.737 430.185 785.437 430.045V433.895C784.597 434.14 783.722 434.35 782.287 434.35ZM793.539 434H789.304V403.9H793.539V411.845C793.539 413.77 793.469 415.625 793.399 417.515C794.134 416.465 795.849 414.715 799.069 414.715C802.289 414.715 805.894 416.815 805.894 422.485V434H801.694V422.52C801.694 419.965 800.049 418.635 798.194 418.635C796.339 418.635 793.539 420.42 793.539 424.655V434Z" fill="black"/>
<path fill-rule="evenodd" clip-rule="evenodd" d="M1327.33 27.9993C1327.33 29.4138 1326.77 30.7704 1325.77 31.7706C1324.77 32.7708 1323.42 33.3327 1322 33.3327C1320.59 33.3327 1319.23 32.7708 1318.23 31.7706C1317.23 30.7704 1316.67 29.4138 1316.67 27.9993C1316.67 26.5849 1317.23 25.2283 1318.23 24.2281C1319.23 23.2279 1320.59 22.666 1322 22.666C1323.42 22.666 1324.77 23.2279 1325.77 24.2281C1326.77 25.2283 1327.33 26.5849 1327.33 27.9993ZM1324.67 27.9993C1324.67 28.7066 1324.39 29.3849 1323.89 29.885C1323.39 30.3851 1322.71 30.666 1322 30.666C1321.29 30.666 1320.62 30.3851 1320.12 29.885C1319.62 29.3849 1319.33 28.7066 1319.33 27.9993C1319.33 27.2921 1319.62 26.6138 1320.12 26.1137C1320.62 25.6136 1321.29 25.3327 1322 25.3327C1322.71 25.3327 1323.39 25.6136 1323.89 26.1137C1324.39 26.6138 1324.67 27.2921 1324.67 27.9993Z" fill="white"/>
<path fill-rule="evenodd" clip-rule="evenodd" d="M1322 17.333C1313.9 17.333 1307.33 23.8997 1307.33 31.9997C1307.33 40.0997 1313.9 46.6663 1322 46.6663C1330.1 46.6663 1336.67 40.0997 1336.67 31.9997C1336.67 23.8997 1330.1 17.333 1322 17.333ZM1310 31.9997C1310 34.7863 1310.95 37.3517 1312.54 39.389C1313.66 37.9195 1315.11 36.7287 1316.76 35.9094C1318.42 35.0902 1320.24 34.6647 1322.09 34.6663C1323.91 34.6646 1325.71 35.079 1327.35 35.8781C1328.99 36.6771 1330.42 37.8396 1331.54 39.277C1332.7 37.7618 1333.48 35.9933 1333.81 34.1178C1334.15 32.2423 1334.03 30.3137 1333.48 28.4917C1332.92 26.6696 1331.94 25.0064 1330.61 23.6397C1329.28 22.273 1327.65 21.2422 1325.84 20.6324C1324.04 20.0226 1322.11 19.8514 1320.23 20.133C1318.34 20.4146 1316.55 21.1409 1315 22.2517C1313.46 23.3626 1312.2 24.8262 1311.32 26.5213C1310.45 28.2164 1310 30.0943 1310 31.9997ZM1322 43.9997C1319.25 44.0038 1316.57 43.0561 1314.44 41.317C1315.3 40.086 1316.44 39.0809 1317.77 38.3873C1319.11 37.6936 1320.59 37.3319 1322.09 37.333C1323.57 37.3318 1325.03 37.6844 1326.35 38.3616C1327.67 39.0387 1328.81 40.0208 1329.67 41.2263C1327.52 43.0219 1324.8 44.0036 1322 43.9997Z" fill="white"/>
<rect width="1440" height="64" fill="black"/>
<path d="M341.68 24.72H347.08C351.04 24.72 353.34 27.72 353.34 31.64C353.34 35.54 351.04 38.5 347.08 38.5H341.68V24.72ZM344.46 36.04H347.08C349.38 36.04 350.56 34 350.56 31.64C350.56 29.28 349.38 27.18 347.08 27.18H344.46V36.04ZM362.52 30.4V29.16H365.14V38.5H362.52V37.16C361.9 38.12 360.7 38.74 359.44 38.74C356.86 38.74 354.94 36.74 354.94 33.84C354.94 30.94 356.82 28.92 359.5 28.92C360.7 28.92 361.9 29.44 362.52 30.4ZM360.02 36.3C361.34 36.3 362.44 35.18 362.44 33.84C362.44 32.42 361.3 31.36 360 31.36C358.64 31.36 357.62 32.48 357.62 33.84C357.62 35.14 358.64 36.3 360.02 36.3ZM371.085 38.74C369.125 38.74 367.225 37.62 367.205 35.56H369.665C369.665 36.1 370.125 36.68 371.045 36.68C371.805 36.68 372.385 36.3 372.385 35.76C372.385 35.36 372.065 35.16 371.365 34.98L370.125 34.68C367.725 34.04 367.405 32.7 367.405 31.72C367.405 30.28 368.905 28.92 371.065 28.92C372.765 28.92 374.765 29.74 374.745 31.96H372.245C372.245 31.32 371.725 30.98 371.105 30.98C370.505 30.98 370.025 31.32 370.025 31.8C370.025 32.24 370.425 32.46 370.945 32.6L372.485 33C374.725 33.6 375.005 35 375.005 35.76C375.005 37.72 373.005 38.74 371.085 38.74ZM382.482 28.92C384.922 28.92 386.202 30.58 386.182 33.38V38.5H383.562V33.54C383.562 32.08 382.682 31.4 381.782 31.4C380.842 31.4 379.682 31.92 379.682 33.6V38.5H377.062V24.08H379.682V30.64C380.082 29.44 381.582 28.92 382.482 28.92ZM394.323 28.92C396.723 28.92 398.903 30.82 398.903 33.82C398.903 36.82 396.723 38.74 394.323 38.74C393.263 38.74 391.983 38.3 391.323 37.34V38.5H388.703V24.08H391.323V30.28C391.983 29.34 393.263 28.92 394.323 28.92ZM393.823 36.3C395.143 36.3 396.223 35.18 396.223 33.82C396.223 32.44 395.143 31.36 393.823 31.36C392.603 31.36 391.403 32.38 391.403 33.82C391.403 35.24 392.543 36.3 393.823 36.3ZM405.428 38.74C402.768 38.74 400.408 36.78 400.408 33.84C400.408 30.88 402.768 28.92 405.428 28.92C408.088 28.92 410.448 30.88 410.448 33.84C410.448 36.78 408.088 38.74 405.428 38.74ZM405.428 36.3C406.728 36.3 407.788 35.28 407.788 33.84C407.788 32.38 406.728 31.36 405.428 31.36C404.128 31.36 403.068 32.38 403.068 33.84C403.068 35.28 404.128 36.3 405.428 36.3ZM419.531 30.4V29.16H422.151V38.5H419.531V37.16C418.911 38.12 417.711 38.74 416.451 38.74C413.871 38.74 411.951 36.74 411.951 33.84C411.951 30.94 413.831 28.92 416.511 28.92C417.711 28.92 418.911 29.44 419.531 30.4ZM417.031 36.3C418.351 36.3 419.451 35.18 419.451 33.84C419.451 32.42 418.311 31.36 417.011 31.36C415.651 31.36 414.631 32.48 414.631 33.84C414.631 35.14 415.651 36.3 417.031 36.3ZM430.137 28.92C430.637 28.92 431.197 29 431.617 29.22L431.017 31.72C430.457 31.42 429.997 31.38 429.677 31.38C428.337 31.38 427.417 32.64 427.417 35.3V38.5H424.797V29.16H427.397V31.16C427.917 29.6 428.977 28.92 430.137 28.92ZM439.766 30.3V24.08H442.386V38.5H439.766V37.34C439.106 38.3 437.806 38.74 436.766 38.74C434.366 38.74 432.186 36.82 432.186 33.82C432.186 30.82 434.366 28.92 436.766 28.92C437.846 28.92 439.106 29.34 439.766 30.3ZM437.266 36.3C438.546 36.3 439.686 35.24 439.686 33.82C439.686 32.38 438.486 31.36 437.266 31.36C435.946 31.36 434.846 32.44 434.846 33.82C434.846 35.18 435.946 36.3 437.266 36.3Z" fill="white"/>
<path d="M501.68 24.72H507.08C511.04 24.72 513.34 27.72 513.34 31.64C513.34 35.54 511.04 38.5 507.08 38.5H501.68V24.72ZM504.46 36.04H507.08C509.38 36.04 510.56 34 510.56 31.64C510.56 29.28 509.38 27.18 507.08 27.18H504.46V36.04ZM522.52 30.4V29.16H525.14V38.5H522.52V37.16C521.9 38.12 520.7 38.74 519.44 38.74C516.86 38.74 514.94 36.74 514.94 33.84C514.94 30.94 516.82 28.92 519.5 28.92C520.7 28.92 521.9 29.44 522.52 30.4ZM520.02 36.3C521.34 36.3 522.44 35.18 522.44 33.84C522.44 32.42 521.3 31.36 520 31.36C518.64 31.36 517.62 32.48 517.62 33.84C517.62 35.14 518.64 36.3 520.02 36.3ZM529.085 27.52C528.185 27.52 527.425 26.82 527.425 25.94C527.425 25.06 528.185 24.38 529.085 24.38C530.005 24.38 530.745 25.06 530.745 25.94C530.745 26.82 530.005 27.52 529.085 27.52ZM530.405 38.5H527.785V29.16H530.405V38.5ZM535.659 38.5H533.039V24.08H535.659V38.5ZM542.173 34.56L544.313 29.16H547.133L541.373 43.08H538.573L540.793 37.62L537.093 29.16H539.973L542.173 34.56ZM559.598 38.74C555.698 38.74 552.598 35.52 552.598 31.6C552.598 27.72 555.698 24.48 559.598 24.48C561.938 24.48 563.978 25.6 565.218 27.34L563.098 28.88C562.318 27.78 561.158 27.1 559.698 27.1C557.198 27.1 555.378 29.14 555.378 31.6C555.378 34.06 557.178 36.12 559.678 36.12C561.158 36.12 562.318 35.44 563.098 34.34L565.218 35.88C563.978 37.62 561.938 38.74 559.598 38.74ZM573.965 30.4V29.16H576.585V38.5H573.965V37.16C573.345 38.12 572.145 38.74 570.885 38.74C568.305 38.74 566.385 36.74 566.385 33.84C566.385 30.94 568.265 28.92 570.945 28.92C572.145 28.92 573.345 29.44 573.965 30.4ZM571.465 36.3C572.785 36.3 573.885 35.18 573.885 33.84C573.885 32.42 572.745 31.36 571.445 31.36C570.085 31.36 569.065 32.48 569.065 33.84C569.065 35.14 570.085 36.3 571.465 36.3ZM582.53 38.74C580.57 38.74 578.67 37.62 578.65 35.56H581.11C581.11 36.1 581.57 36.68 582.49 36.68C583.25 36.68 583.83 36.3 583.83 35.76C583.83 35.36 583.51 35.16 582.81 34.98L581.57 34.68C579.17 34.04 578.85 32.7 578.85 31.72C578.85 30.28 580.35 28.92 582.51 28.92C584.21 28.92 586.21 29.74 586.19 31.96H583.69C583.69 31.32 583.17 30.98 582.55 30.98C581.95 30.98 581.47 31.32 581.47 31.8C581.47 32.24 581.87 32.46 582.39 32.6L583.93 33C586.17 33.6 586.45 35 586.45 35.76C586.45 37.72 584.45 38.74 582.53 38.74ZM593.928 28.92C596.368 28.92 597.648 30.58 597.628 33.38V38.5H595.008V33.54C595.008 32.08 594.128 31.4 593.228 31.4C592.288 31.4 591.128 31.92 591.128 33.6V38.5H588.507V24.08H591.128V30.64C591.528 29.44 593.028 28.92 593.928 28.92ZM613.794 24.72V27.18H608.054V30.5H612.614V32.94H608.054V38.5H605.274V24.72H613.794ZM618.276 38.5H615.656V24.08H618.276V38.5ZM625.35 38.74C622.69 38.74 620.33 36.78 620.33 33.84C620.33 30.88 622.69 28.92 625.35 28.92C628.01 28.92 630.37 30.88 630.37 33.84C630.37 36.78 628.01 38.74 625.35 38.74ZM625.35 36.3C626.65 36.3 627.71 35.28 627.71 33.84C627.71 32.38 626.65 31.36 625.35 31.36C624.05 31.36 622.99 32.38 622.99 33.84C622.99 35.28 624.05 36.3 625.35 36.3ZM641.437 34.86L643.197 29.16H646.037L642.737 38.5H640.497L638.577 32.44L636.717 38.5H634.477L631.077 29.16H633.917L635.677 34.86L637.457 29.16H639.657L641.437 34.86Z" fill="white"/>
<path d="M716.16 38.5H713.24L712.12 35.2H706.96L705.86 38.5H702.9L708.04 24.72H711.04L716.16 38.5ZM709.54 27.56L707.78 32.78H711.3L709.54 27.56ZM720.686 38.74C718.726 38.74 716.826 37.62 716.806 35.56H719.266C719.266 36.1 719.726 36.68 720.646 36.68C721.406 36.68 721.986 36.3 721.986 35.76C721.986 35.36 721.666 35.16 720.966 34.98L719.726 34.68C717.326 34.04 717.006 32.7 717.006 31.72C717.006 30.28 718.506 28.92 720.666 28.92C722.366 28.92 724.366 29.74 724.346 31.96H721.846C721.846 31.32 721.326 30.98 720.706 30.98C720.106 30.98 719.626 31.32 719.626 31.8C719.626 32.24 720.026 32.46 720.546 32.6L722.086 33C724.326 33.6 724.606 35 724.606 35.76C724.606 37.72 722.606 38.74 720.686 38.74ZM729.964 38.74C728.004 38.74 726.104 37.62 726.084 35.56H728.544C728.544 36.1 729.004 36.68 729.924 36.68C730.684 36.68 731.264 36.3 731.264 35.76C731.264 35.36 730.944 35.16 730.244 34.98L729.004 34.68C726.604 34.04 726.284 32.7 726.284 31.72C726.284 30.28 727.784 28.92 729.944 28.92C731.644 28.92 733.644 29.74 733.624 31.96H731.124C731.124 31.32 730.604 30.98 729.984 30.98C729.384 30.98 728.904 31.32 728.904 31.8C728.904 32.24 729.304 32.46 729.824 32.6L731.364 33C733.604 33.6 733.884 35 733.884 35.76C733.884 37.72 731.884 38.74 729.964 38.74ZM745.201 33.68C745.201 33.94 745.181 34.26 745.141 34.68H738.121C738.401 35.78 739.281 36.42 740.521 36.42C741.481 36.42 742.401 35.98 742.981 35.32L744.501 36.86C743.621 38.04 742.001 38.74 740.361 38.74C737.481 38.74 735.381 36.72 735.381 33.84C735.381 30.82 737.681 28.92 740.341 28.92C743.021 28.92 745.201 30.82 745.201 33.68ZM738.121 32.98H742.561C742.481 31.88 741.581 31.18 740.401 31.18C739.321 31.18 738.401 31.72 738.121 32.98ZM750.613 29.16H752.593V31.2H750.613V38.5H747.993V31.2H746.293V29.16H747.993V25.76H750.613V29.16ZM757.522 38.74C755.562 38.74 753.662 37.62 753.642 35.56H756.102C756.102 36.1 756.562 36.68 757.482 36.68C758.242 36.68 758.822 36.3 758.822 35.76C758.822 35.36 758.502 35.16 757.802 34.98L756.562 34.68C754.162 34.04 753.842 32.7 753.842 31.72C753.842 30.28 755.342 28.92 757.502 28.92C759.202 28.92 761.202 29.74 761.182 31.96H758.682C758.682 31.32 758.162 30.98 757.542 30.98C756.942 30.98 756.462 31.32 756.462 31.8C756.462 32.24 756.862 32.46 757.382 32.6L758.922 33C761.162 33.6 761.442 35 761.442 35.76C761.442 37.72 759.442 38.74 757.522 38.74Z" fill="white"/>
<path d="M823.46 24.72V36.04H828.68V38.5H820.68V24.72H823.46ZM831.698 27.52C830.798 27.52 830.038 26.82 830.038 25.94C830.038 25.06 830.798 24.38 831.698 24.38C832.618 24.38 833.358 25.06 833.358 25.94C833.358 26.82 832.618 27.52 831.698 27.52ZM833.018 38.5H830.398V29.16H833.018V38.5ZM842.672 30.4V29.16H845.292V38.5H842.672V37.16C842.052 38.12 840.852 38.74 839.592 38.74C837.012 38.74 835.092 36.74 835.092 33.84C835.092 30.94 836.972 28.92 839.652 28.92C840.852 28.92 842.052 29.44 842.672 30.4ZM840.172 36.3C841.492 36.3 842.592 35.18 842.592 33.84C842.592 32.42 841.452 31.36 840.152 31.36C838.792 31.36 837.772 32.48 837.772 33.84C837.772 35.14 838.792 36.3 840.172 36.3ZM853.557 28.92C855.957 28.92 858.137 30.82 858.137 33.82C858.137 36.82 855.957 38.74 853.557 38.74C852.497 38.74 851.217 38.3 850.557 37.34V38.5H847.937V24.08H850.557V30.28C851.217 29.34 852.497 28.92 853.557 28.92ZM853.057 36.3C854.377 36.3 855.457 35.18 855.457 33.82C855.457 32.44 854.377 31.36 853.057 31.36C851.837 31.36 850.637 32.38 850.637 33.82C850.637 35.24 851.777 36.3 853.057 36.3ZM861.522 27.52C860.622 27.52 859.862 26.82 859.862 25.94C859.862 25.06 860.622 24.38 861.522 24.38C862.442 24.38 863.182 25.06 863.182 25.94C863.182 26.82 862.442 27.52 861.522 27.52ZM862.842 38.5H860.222V29.16H862.842V38.5ZM868.096 38.5H865.476V24.08H868.096V38.5ZM872.03 27.52C871.13 27.52 870.37 26.82 870.37 25.94C870.37 25.06 871.13 24.38 872.03 24.38C872.95 24.38 873.69 25.06 873.69 25.94C873.69 26.82 872.95 27.52 872.03 27.52ZM873.35 38.5H870.73V29.16H873.35V38.5ZM879.504 29.16H881.484V31.2H879.504V38.5H876.884V31.2H875.184V29.16H876.884V25.76H879.504V29.16ZM892.236 33.68C892.236 33.94 892.216 34.26 892.176 34.68H885.156C885.436 35.78 886.316 36.42 887.556 36.42C888.516 36.42 889.436 35.98 890.016 35.32L891.536 36.86C890.656 38.04 889.036 38.74 887.396 38.74C884.516 38.74 882.416 36.72 882.416 33.84C882.416 30.82 884.716 28.92 887.376 28.92C890.056 28.92 892.236 30.82 892.236 33.68ZM885.156 32.98H889.596C889.516 31.88 888.616 31.18 887.436 31.18C886.356 31.18 885.436 31.72 885.156 32.98ZM897.565 38.74C895.605 38.74 893.705 37.62 893.685 35.56H896.145C896.145 36.1 896.605 36.68 897.525 36.68C898.285 36.68 898.865 36.3 898.865 35.76C898.865 35.36 898.545 35.16 897.845 34.98L896.605 34.68C894.205 34.04 893.885 32.7 893.885 31.72C893.885 30.28 895.385 28.92 897.545 28.92C899.245 28.92 901.245 29.74 901.225 31.96H898.725C898.725 31.32 898.205 30.98 897.585 30.98C896.985 30.98 896.505 31.32 896.505 31.8C896.505 32.24 896.905 32.46 897.425 32.6L898.965 33C901.205 33.6 901.485 35 901.485 35.76C901.485 37.72 899.485 38.74 897.565 38.74Z" fill="white"/>
<rect x="960.5" y="12.5" width="138" height="39" rx="18.5" stroke="white" stroke-width="3"/>
<path d="M977.16 25.976V27.944H972.568V30.6H976.216V32.552H972.568V37H970.344V25.976H977.16ZM979.737 28.216C979.017 28.216 978.409 27.656 978.409 26.952C978.409 26.248 979.017 25.704 979.737 25.704C980.473 25.704 981.065 26.248 981.065 26.952C981.065 27.656 980.473 28.216 979.737 28.216ZM980.793 37H978.697V29.528H980.793V37ZM987.172 29.336C987.572 29.336 988.02 29.4 988.356 29.576L987.876 31.576C987.428 31.336 987.06 31.304 986.804 31.304C985.732 31.304 984.996 32.312 984.996 34.44V37H982.9V29.528H984.98V31.128C985.396 29.88 986.244 29.336 987.172 29.336ZM992.009 37.192C990.441 37.192 988.921 36.296 988.905 34.648H990.873C990.873 35.08 991.241 35.544 991.977 35.544C992.585 35.544 993.049 35.24 993.049 34.808C993.049 34.488 992.793 34.328 992.233 34.184L991.241 33.944C989.321 33.432 989.065 32.36 989.065 31.576C989.065 30.424 990.265 29.336 991.993 29.336C993.353 29.336 994.953 29.992 994.937 31.768H992.937C992.937 31.256 992.521 30.984 992.025 30.984C991.545 30.984 991.161 31.256 991.161 31.64C991.161 31.992 991.481 32.168 991.897 32.28L993.129 32.6C994.921 33.08 995.145 34.2 995.145 34.808C995.145 36.376 993.545 37.192 992.009 37.192ZM999.56 29.528H1001.14V31.16H999.56V37H997.464V31.16H996.104V29.528H997.464V26.808H999.56V29.528ZM1005.07 25.976H1013.37V27.944H1010.33V37H1008.11V27.944H1005.07V25.976ZM1015.74 28.216C1015.02 28.216 1014.41 27.656 1014.41 26.952C1014.41 26.248 1015.02 25.704 1015.74 25.704C1016.47 25.704 1017.06 26.248 1017.06 26.952C1017.06 27.656 1016.47 28.216 1015.74 28.216ZM1016.79 37H1014.7V29.528H1016.79V37ZM1028 29.336C1029.88 29.336 1030.85 30.664 1030.85 32.904V37H1028.74V32.968C1028.74 31.8 1028.13 31.304 1027.4 31.304C1026.5 31.288 1025.92 31.928 1025.92 33.32V37H1023.83V33C1023.83 31.816 1023.22 31.304 1022.52 31.304C1021.76 31.304 1021 31.72 1021 33.064V37H1018.9V29.528H1021V30.728C1021.3 29.8 1022.31 29.336 1023.11 29.336C1024.21 29.336 1025.06 29.864 1025.51 30.808C1026.05 29.72 1027.22 29.336 1028 29.336ZM1040.26 33.144C1040.26 33.352 1040.24 33.608 1040.21 33.944H1034.6C1034.82 34.824 1035.52 35.336 1036.52 35.336C1037.28 35.336 1038.02 34.984 1038.48 34.456L1039.7 35.688C1039 36.632 1037.7 37.192 1036.39 37.192C1034.08 37.192 1032.4 35.576 1032.4 33.272C1032.4 30.856 1034.24 29.336 1036.37 29.336C1038.52 29.336 1040.26 30.856 1040.26 33.144ZM1034.6 32.584H1038.15C1038.08 31.704 1037.36 31.144 1036.42 31.144C1035.56 31.144 1034.82 31.576 1034.6 32.584ZM1050.08 37.192C1047.84 37.192 1045.87 35.64 1045.87 33.112V25.976H1048.1V32.968C1048.1 34.472 1049.06 35.08 1050.08 35.08C1051.12 35.08 1052.08 34.472 1052.08 32.968V25.976H1054.3V33.112C1054.3 35.64 1052.34 37.192 1050.08 37.192ZM1059.01 37.192C1057.44 37.192 1055.92 36.296 1055.9 34.648H1057.87C1057.87 35.08 1058.24 35.544 1058.98 35.544C1059.58 35.544 1060.05 35.24 1060.05 34.808C1060.05 34.488 1059.79 34.328 1059.23 34.184L1058.24 33.944C1056.32 33.432 1056.06 32.36 1056.06 31.576C1056.06 30.424 1057.26 29.336 1058.99 29.336C1060.35 29.336 1061.95 29.992 1061.94 31.768H1059.94C1059.94 31.256 1059.52 30.984 1059.02 30.984C1058.54 30.984 1058.16 31.256 1058.16 31.64C1058.16 31.992 1058.48 32.168 1058.9 32.28L1060.13 32.6C1061.92 33.08 1062.14 34.2 1062.14 34.808C1062.14 36.376 1060.54 37.192 1059.01 37.192ZM1071.2 33.144C1071.2 33.352 1071.18 33.608 1071.15 33.944H1065.53C1065.76 34.824 1066.46 35.336 1067.45 35.336C1068.22 35.336 1068.96 34.984 1069.42 34.456L1070.64 35.688C1069.93 36.632 1068.64 37.192 1067.33 37.192C1065.02 37.192 1063.34 35.576 1063.34 33.272C1063.34 30.856 1065.18 29.336 1067.31 29.336C1069.45 29.336 1071.2 30.856 1071.2 33.144ZM1065.53 32.584H1069.09C1069.02 31.704 1068.3 31.144 1067.36 31.144C1066.49 31.144 1065.76 31.576 1065.53 32.584ZM1077.09 29.336C1077.49 29.336 1077.94 29.4 1078.28 29.576L1077.8 31.576C1077.35 31.336 1076.98 31.304 1076.73 31.304C1075.65 31.304 1074.92 32.312 1074.92 34.44V37H1072.82V29.528H1074.9V31.128C1075.32 29.88 1076.17 29.336 1077.09 29.336ZM1085.73 33.304H1084.02L1084.01 32.984C1083.89 31.752 1084.2 30.952 1085.53 30.408L1086.1 30.184C1086.68 29.944 1086.93 29.432 1086.93 29C1086.93 28.216 1086.39 27.784 1085.62 27.784C1084.93 27.784 1084.28 28.296 1084.25 29.176H1082.31C1082.31 26.984 1083.77 25.784 1085.65 25.784C1087.56 25.784 1088.93 26.968 1088.93 28.888C1088.93 30.44 1088.02 31.544 1086.79 31.976C1086.18 32.184 1085.73 32.344 1085.73 33V33.304ZM1084.87 37.144C1084.15 37.144 1083.54 36.6 1083.54 35.848C1083.54 35.096 1084.15 34.568 1084.87 34.568C1085.61 34.568 1086.21 35.096 1086.21 35.848C1086.21 36.6 1085.61 37.144 1084.87 37.144Z" fill="white"/>
<rect x="136.328" y="22.3613" width="18.3607" height="18.3607" rx="9.18033" fill="#148CFB"/>
<path d="M141.727 28.5703C142.174 28.5703 142.537 28.2076 142.537 27.7602C142.537 27.3129 142.174 26.9502 141.727 26.9502C141.28 26.9502 140.917 27.3129 140.917 27.7602C140.917 28.2076 141.28 28.5703 141.727 28.5703Z" fill="white" stroke="white" stroke-width="0.459016" stroke-linecap="round"/>
<path d="M141.727 32.3505C142.174 32.3505 142.537 31.9879 142.537 31.5405C142.537 31.0931 142.174 30.7305 141.727 30.7305C141.28 30.7305 140.917 31.0931 140.917 31.5405C140.917 31.9879 141.28 32.3505 141.727 32.3505Z" fill="white" stroke="white" stroke-width="0.459016" stroke-linecap="round"/>
<path d="M141.727 36.1308C142.174 36.1308 142.537 35.7681 142.537 35.3208C142.537 34.8734 142.174 34.5107 141.727 34.5107C141.28 34.5107 140.917 34.8734 140.917 35.3208C140.917 35.7681 141.28 36.1308 141.727 36.1308Z" fill="white" stroke="white" stroke-width="0.459016" stroke-linecap="round"/>
<path d="M149.288 26.9502H144.968C144.521 26.9502 144.158 27.3129 144.158 27.7602C144.158 28.2076 144.521 28.5703 144.968 28.5703H149.288C149.736 28.5703 150.098 28.2076 150.098 27.7602C150.098 27.3129 149.736 26.9502 149.288 26.9502Z" fill="white" stroke="white" stroke-width="0.459016" stroke-linecap="round"/>
<path d="M149.288 30.7305H144.968C144.521 30.7305 144.158 31.0931 144.158 31.5405C144.158 31.9879 144.521 32.3505 144.968 32.3505H149.288C149.736 32.3505 150.098 31.9879 150.098 31.5405C150.098 31.0931 149.736 30.7305 149.288 30.7305Z" fill="white" stroke="white" stroke-width="0.459016" stroke-linecap="round"/>
<path d="M149.288 34.5107H144.968C144.521 34.5107 144.158 34.8734 144.158 35.3208C144.158 35.7681 144.521 36.1308 144.968 36.1308H149.288C149.736 36.1308 150.098 35.7681 150.098 35.3208C150.098 34.8734 149.736 34.5107 149.288 34.5107Z" fill="white" stroke="white" stroke-width="0.459016" stroke-linecap="round"/>
<path d="M118.298 40.5967L111.927 25.1003H114.442L118.334 34.9783L122.447 24.7882L126.542 34.96L130.397 25.1003H132.913L126.542 40.5967L122.429 30.3331L118.298 40.5967Z" fill="white"/>
<path d="M168.238 40.2793H159.811V25.1501H162.088V38.1678H168.238V40.2793Z" fill="white"/>
<circle cx="192.787" cy="31.5417" r="8.72131" fill="white" stroke="#6F6F6F" stroke-width="0.918033"/>
<circle cx="190.007" cy="27.2772" r="1.53005" transform="rotate(75.9181 190.007 27.2772)" fill="#6F6F6F"/>
<circle cx="188.293" cy="29.8764" r="0.765027" transform="rotate(75.9181 188.293 29.8764)" fill="#6F6F6F"/>
<path d="M176.263 18.6885V44.3934" stroke="white" stroke-width="1.37705" stroke-linecap="square"/>
<path fill-rule="evenodd" clip-rule="evenodd" d="M1327.33 27.9993C1327.33 29.4138 1326.77 30.7704 1325.77 31.7706C1324.77 32.7708 1323.42 33.3327 1322 33.3327C1320.59 33.3327 1319.23 32.7708 1318.23 31.7706C1317.23 30.7704 1316.67 29.4138 1316.67 27.9993C1316.67 26.5849 1317.23 25.2283 1318.23 24.2281C1319.23 23.2279 1320.59 22.666 1322 22.666C1323.42 22.666 1324.77 23.2279 1325.77 24.2281C1326.77 25.2283 1327.33 26.5849 1327.33 27.9993ZM1324.67 27.9993C1324.67 28.7066 1324.39 29.3849 1323.89 29.885C1323.39 30.3851 1322.71 30.666 1322 30.666C1321.29 30.666 1320.62 30.3851 1320.12 29.885C1319.62 29.3849 1319.33 28.7066 1319.33 27.9993C1319.33 27.2921 1319.62 26.6138 1320.12 26.1137C1320.62 25.6136 1321.29 25.3327 1322 25.3327C1322.71 25.3327 1323.39 25.6136 1323.89 26.1137C1324.39 26.6138 1324.67 27.2921 1324.67 27.9993Z" fill="white"/>
<path fill-rule="evenodd" clip-rule="evenodd" d="M1322 17.333C1313.9 17.333 1307.33 23.8997 1307.33 31.9997C1307.33 40.0997 1313.9 46.6663 1322 46.6663C1330.1 46.6663 1336.67 40.0997 1336.67 31.9997C1336.67 23.8997 1330.1 17.333 1322 17.333ZM1310 31.9997C1310 34.7863 1310.95 37.3517 1312.54 39.389C1313.66 37.9195 1315.11 36.7287 1316.76 35.9094C1318.42 35.0902 1320.24 34.6647 1322.09 34.6663C1323.91 34.6646 1325.71 35.079 1327.35 35.8781C1328.99 36.6771 1330.42 37.8396 1331.54 39.277C1332.7 37.7618 1333.48 35.9933 1333.81 34.1178C1334.15 32.2423 1334.03 30.3137 1333.48 28.4917C1332.92 26.6696 1331.94 25.0064 1330.61 23.6397C1329.28 22.273 1327.65 21.2422 1325.84 20.6324C1324.04 20.0226 1322.11 19.8514 1320.23 20.133C1318.34 20.4146 1316.55 21.1409 1315 22.2517C1313.46 23.3626 1312.2 24.8262 1311.32 26.5213C1310.45 28.2164 1310 30.0943 1310 31.9997ZM1322 43.9997C1319.25 44.0038 1316.57 43.0561 1314.44 41.317C1315.3 40.086 1316.44 39.0809 1317.77 38.3873C1319.11 37.6936 1320.59 37.3319 1322.09 37.333C1323.57 37.3318 1325.03 37.6844 1326.35 38.3616C1327.67 39.0387 1328.81 40.0208 1329.67 41.2263C1327.52 43.0219 1324.8 44.0036 1322 43.9997Z" fill="white"/>
</svg>
