<svg width="20" height="20" viewBox="0 0 20 20" fill="none" xmlns="http://www.w3.org/2000/svg">
<g id="line-md:list-3-filled">
<rect x="0.607147" y="0.571289" width="18.5714" height="18.5714" rx="9.28571" fill="#148CFB"/>
<g id="Group">
<g id="Group_2">
<path id="Vector" d="M6.0693 6.8535C6.5218 6.8535 6.88863 6.48667 6.88863 6.03417C6.88863 5.58167 6.5218 5.21484 6.0693 5.21484C5.6168 5.21484 5.24997 5.58167 5.24997 6.03417C5.24997 6.48667 5.6168 6.8535 6.0693 6.8535Z" fill="white" stroke="white" stroke-width="0.464286" stroke-linecap="round"/>
<path id="Vector_2" d="M6.0693 10.6767C6.5218 10.6767 6.88863 10.3099 6.88863 9.85741C6.88863 9.40491 6.5218 9.03809 6.0693 9.03809C5.6168 9.03809 5.24997 9.40491 5.24997 9.85741C5.24997 10.3099 5.6168 10.6767 6.0693 10.6767Z" fill="white" stroke="white" stroke-width="0.464286" stroke-linecap="round"/>
<path id="Vector_3" d="M6.0693 14.501C6.5218 14.501 6.88863 14.1341 6.88863 13.6816C6.88863 13.2291 6.5218 12.8623 6.0693 12.8623C5.6168 12.8623 5.24997 13.2291 5.24997 13.6816C5.24997 14.1341 5.6168 14.501 6.0693 14.501Z" fill="white" stroke="white" stroke-width="0.464286" stroke-linecap="round"/>
</g>
<g id="Group_3">
<path id="Vector_4" d="M13.7163 5.21484H9.3466C8.89409 5.21484 8.52727 5.58167 8.52727 6.03417C8.52727 6.48667 8.89409 6.8535 9.3466 6.8535H13.7163C14.1688 6.8535 14.5357 6.48667 14.5357 6.03417C14.5357 5.58167 14.1688 5.21484 13.7163 5.21484Z" fill="white" stroke="white" stroke-width="0.464286" stroke-linecap="round"/>
<path id="Vector_5" d="M13.7163 9.03809H9.3466C8.89409 9.03809 8.52727 9.40491 8.52727 9.85741C8.52727 10.3099 8.89409 10.6767 9.3466 10.6767H13.7163C14.1688 10.6767 14.5357 10.3099 14.5357 9.85741C14.5357 9.40491 14.1688 9.03809 13.7163 9.03809Z" fill="white" stroke="white" stroke-width="0.464286" stroke-linecap="round"/>
<path id="Vector_6" d="M13.7163 12.8623H9.3466C8.89409 12.8623 8.52727 13.2291 8.52727 13.6816C8.52727 14.1341 8.89409 14.501 9.3466 14.501H13.7163C14.1688 14.501 14.5357 14.1341 14.5357 13.6816C14.5357 13.2291 14.1688 12.8623 13.7163 12.8623Z" fill="white" stroke="white" stroke-width="0.464286" stroke-linecap="round"/>
</g>
</g>
</g>
</svg>
