<svg width="149" height="27" viewBox="0 0 149 27" fill="none" xmlns="http://www.w3.org/2000/svg">
<path d="M15.305 1.885H17.615V26H15.235L2.88 5.91V26H0.57V1.885H2.985L15.305 21.94V1.885ZM38.9858 17.775C38.9858 18.09 38.9858 18.44 38.9508 18.755H24.8808C25.2658 22.255 27.7158 24.215 31.0058 24.215C33.2458 24.215 35.2408 23.2 36.3258 21.415L38.2508 22.255C36.8158 24.88 34.0158 26.35 30.9358 26.35C26.3158 26.35 22.6058 22.955 22.6058 17.775C22.6058 12.595 26.3158 9.305 30.9358 9.305C35.5908 9.305 38.9858 12.595 38.9858 17.775ZM24.9158 16.83H36.7808C36.4658 13.435 34.1208 11.44 30.9358 11.44C27.7158 11.44 25.3358 13.33 24.9158 16.83ZM50.1757 9.655V11.58H46.4307V26H44.2257V11.58H41.2507V9.655H44.2257V3.145H46.4307V9.655H50.1757ZM84.1855 9.655H86.5655L80.4755 26H78.5155L73.4405 12.63L68.5755 26H66.6155L60.3505 9.655H62.7655L67.5605 22.64L72.3205 9.655H74.6305L79.4255 22.605L84.1855 9.655ZM97.2151 26.35C92.5601 26.35 88.6751 22.955 88.6751 17.775C88.6751 12.595 92.5601 9.305 97.2151 9.305C101.87 9.305 105.79 12.595 105.79 17.775C105.79 22.955 101.87 26.35 97.2151 26.35ZM97.2151 24.215C100.645 24.215 103.55 21.66 103.55 17.775C103.55 13.925 100.645 11.44 97.2151 11.44C93.7501 11.44 90.9151 13.925 90.9151 17.775C90.9151 21.66 93.7501 24.215 97.2151 24.215ZM117.62 9.305C118.53 9.305 119.58 9.48 120.21 9.795L119.79 11.93C118.95 11.58 118.18 11.475 117.585 11.475C113.7 11.475 112.51 15.815 112.51 19.84V26H110.235V9.655H112.51V13.645C113.315 10.88 115.065 9.305 117.62 9.305ZM130.395 9.655V11.58H126.65V26H124.445V11.58H121.47V9.655H124.445V3.145H126.65V9.655H130.395ZM141.763 9.305C145.718 9.305 148.413 11.965 148.413 16.48V26H146.173V16.585C146.173 13.435 144.178 11.51 141.553 11.51C138.928 11.51 136.163 12.98 136.093 16.935V26H133.853V0.449999H136.093V12.595C137.073 10.25 139.733 9.305 141.763 9.305Z" fill="black"/>
</svg>
