<svg width="32" height="32" viewBox="0 0 32 32" fill="none" xmlns="http://www.w3.org/2000/svg">
<path fill-rule="evenodd" clip-rule="evenodd" d="M21.3334 11.9993C21.3334 13.4138 20.7715 14.7704 19.7713 15.7706C18.7711 16.7708 17.4146 17.3327 16.0001 17.3327C14.5856 17.3327 13.229 16.7708 12.2288 15.7706C11.2287 14.7704 10.6667 13.4138 10.6667 11.9993C10.6667 10.5849 11.2287 9.22831 12.2288 8.22811C13.229 7.22792 14.5856 6.66602 16.0001 6.66602C17.4146 6.66602 18.7711 7.22792 19.7713 8.22811C20.7715 9.22831 21.3334 10.5849 21.3334 11.9993ZM18.6667 11.9993C18.6667 12.7066 18.3858 13.3849 17.8857 13.885C17.3856 14.3851 16.7073 14.666 16.0001 14.666C15.2928 14.666 14.6146 14.3851 14.1145 13.885C13.6144 13.3849 13.3334 12.7066 13.3334 11.9993C13.3334 11.2921 13.6144 10.6138 14.1145 10.1137C14.6146 9.61363 15.2928 9.33268 16.0001 9.33268C16.7073 9.33268 17.3856 9.61363 17.8857 10.1137C18.3858 10.6138 18.6667 11.2921 18.6667 11.9993Z" fill="black"/>
<path fill-rule="evenodd" clip-rule="evenodd" d="M16 1.33301C7.90004 1.33301 1.33337 7.89967 1.33337 15.9997C1.33337 24.0997 7.90004 30.6663 16 30.6663C24.1 30.6663 30.6667 24.0997 30.6667 15.9997C30.6667 7.89967 24.1 1.33301 16 1.33301ZM4.00004 15.9997C4.00004 18.7863 4.95071 21.3517 6.54404 23.389C7.66302 21.9195 9.10657 20.7287 10.762 19.9094C12.4173 19.0902 14.2397 18.6647 16.0867 18.6663C17.9098 18.6646 19.7093 19.079 21.3479 19.8781C22.9866 20.6771 24.4213 21.8396 25.5427 23.277C26.698 21.7618 27.4758 19.9933 27.8119 18.1178C28.148 16.2423 28.0326 14.3137 27.4754 12.4917C26.9181 10.6696 25.935 9.0064 24.6074 7.63972C23.2797 6.27304 21.6457 5.24215 19.8406 4.63235C18.0354 4.02255 16.111 3.85137 14.2265 4.13297C12.3421 4.41457 10.5518 5.14086 9.00373 6.25175C7.4557 7.36263 6.19446 8.82617 5.32435 10.5213C4.45424 12.2164 4.00028 14.0943 4.00004 15.9997ZM16 27.9997C13.2453 28.0038 10.5737 27.0561 8.43737 25.317C9.29728 24.086 10.4418 23.0809 11.7736 22.3873C13.1054 21.6936 14.5851 21.3319 16.0867 21.333C17.5696 21.3318 19.0314 21.6844 20.3506 22.3616C21.6699 23.0387 22.8085 24.0208 23.672 25.2263C21.5191 27.0219 18.8035 28.0036 16 27.9997Z" fill="black"/>
</svg>
