<svg width="182" height="35" viewBox="0 0 182 35" fill="none" xmlns="http://www.w3.org/2000/svg">
<path d="M8.36 34H3.656L6.104 26.128H0.728L1.928 21.76H7.304L9.704 13.648H4.424L5.624 9.28H11L13.448 0.927999H18.344L15.848 9.28H21.416L23.912 0.927999H28.712L26.216 9.28H31.64L30.44 13.648H24.968L22.52 21.76H27.944L26.696 26.128H21.272L18.728 34H13.976L16.424 26.128H10.856L8.36 34ZM14.552 13.648L12.104 21.76H17.624L20.12 13.648H14.552ZM42.7194 34H38.0154L40.4634 26.128H35.0874L36.2874 21.76H41.6634L44.0634 13.648H38.7834L39.9834 9.28H45.3594L47.8074 0.927999H52.7034L50.2074 9.28H55.7754L58.2714 0.927999H63.0714L60.5754 9.28H65.9994L64.7994 13.648H59.3274L56.8794 21.76H62.3034L61.0554 26.128H55.6314L53.0874 34H48.3354L50.7834 26.128H45.2154L42.7194 34ZM48.9114 13.648L46.4634 21.76H51.9834L54.4794 13.648H48.9114ZM77.0788 34H72.3748L74.8228 26.128H69.4468L70.6468 21.76H76.0228L78.4228 13.648H73.1428L74.3428 9.28H79.7188L82.1668 0.927999H87.0628L84.5668 9.28H90.1348L92.6308 0.927999H97.4308L94.9348 9.28H100.359L99.1588 13.648H93.6868L91.2388 21.76H96.6628L95.4148 26.128H89.9908L87.4468 34H82.6948L85.1428 26.128H79.5748L77.0788 34ZM83.2708 13.648L80.8228 21.76H86.3428L88.8388 13.648H83.2708ZM108.366 34.432C106.206 34.432 104.382 32.8 104.382 30.544C104.382 28.336 106.206 26.704 108.366 26.704C110.574 26.704 112.446 28.336 112.446 30.544C112.446 32.8 110.574 34.432 108.366 34.432ZM124.094 34H119.39L121.838 26.128H116.462L117.662 21.76H123.038L125.438 13.648H120.158L121.358 9.28H126.734L129.182 0.927999H134.078L131.582 9.28H137.15L139.646 0.927999H144.446L141.95 9.28H147.374L146.174 13.648H140.702L138.254 21.76H143.678L142.43 26.128H137.006L134.462 34H129.71L132.158 26.128H126.59L124.094 34ZM130.286 13.648L127.838 21.76H133.358L135.854 13.648H130.286ZM158.454 34H153.75L156.198 26.128H150.822L152.022 21.76H157.398L159.798 13.648H154.518L155.718 9.28H161.094L163.542 0.927999H168.438L165.942 9.28H171.51L174.006 0.927999H178.806L176.31 9.28H181.734L180.534 13.648H175.062L172.614 21.76H178.038L176.79 26.128H171.366L168.822 34H164.07L166.518 26.128H160.95L158.454 34ZM164.646 13.648L162.198 21.76H167.718L170.214 13.648H164.646Z" fill="black"/>
</svg>
