<svg width="141" height="42" viewBox="0 0 141 42" fill="none" xmlns="http://www.w3.org/2000/svg">
<rect x="1.5" y="1.5" width="138" height="39" rx="18.5" stroke="black" stroke-width="3"/>
<path d="M18.16 14.976V16.944H13.568V19.6H17.216V21.552H13.568V26H11.344V14.976H18.16ZM20.7366 17.216C20.0166 17.216 19.4086 16.656 19.4086 15.952C19.4086 15.248 20.0166 14.704 20.7366 14.704C21.4726 14.704 22.0646 15.248 22.0646 15.952C22.0646 16.656 21.4726 17.216 20.7366 17.216ZM21.7926 26H19.6966V18.528H21.7926V26ZM28.1718 18.336C28.5718 18.336 29.0198 18.4 29.3558 18.576L28.8758 20.576C28.4278 20.336 28.0598 20.304 27.8038 20.304C26.7318 20.304 25.9958 21.312 25.9958 23.44V26H23.8997V18.528H25.9798V20.128C26.3958 18.88 27.2438 18.336 28.1718 18.336ZM33.0085 26.192C31.4405 26.192 29.9205 25.296 29.9045 23.648H31.8725C31.8725 24.08 32.2405 24.544 32.9765 24.544C33.5845 24.544 34.0485 24.24 34.0485 23.808C34.0485 23.488 33.7925 23.328 33.2325 23.184L32.2405 22.944C30.3205 22.432 30.0645 21.36 30.0645 20.576C30.0645 19.424 31.2645 18.336 32.9925 18.336C34.3525 18.336 35.9525 18.992 35.9365 20.768H33.9365C33.9365 20.256 33.5205 19.984 33.0245 19.984C32.5445 19.984 32.1605 20.256 32.1605 20.64C32.1605 20.992 32.4805 21.168 32.8965 21.28L34.1285 21.6C35.9205 22.08 36.1445 23.2 36.1445 23.808C36.1445 25.376 34.5445 26.192 33.0085 26.192ZM40.5595 18.528H42.1435V20.16H40.5595V26H38.4635V20.16H37.1035V18.528H38.4635V15.808H40.5595V18.528ZM46.07 14.976H54.374V16.944H51.334V26H49.11V16.944H46.07V14.976ZM56.7366 17.216C56.0166 17.216 55.4086 16.656 55.4086 15.952C55.4086 15.248 56.0166 14.704 56.7366 14.704C57.4726 14.704 58.0646 15.248 58.0646 15.952C58.0646 16.656 57.4726 17.216 56.7366 17.216ZM57.7926 26H55.6966V18.528H57.7926V26ZM69.0038 18.336C70.8758 18.336 71.8518 19.664 71.8518 21.904V26H69.7398V21.968C69.7398 20.8 69.1318 20.304 68.3958 20.304C67.4998 20.288 66.9237 20.928 66.9237 22.32V26H64.8278V22C64.8278 20.816 64.2198 20.304 63.5158 20.304C62.7638 20.304 61.9958 20.72 61.9958 22.064V26H59.8997V18.528H61.9958V19.728C62.2998 18.8 63.3078 18.336 64.1078 18.336C65.2118 18.336 66.0598 18.864 66.5078 19.808C67.0518 18.72 68.2198 18.336 69.0038 18.336ZM81.2609 22.144C81.2609 22.352 81.2449 22.608 81.2129 22.944H75.5969C75.8209 23.824 76.5249 24.336 77.5169 24.336C78.2849 24.336 79.0209 23.984 79.4849 23.456L80.7009 24.688C79.9969 25.632 78.7009 26.192 77.3889 26.192C75.0849 26.192 73.4049 24.576 73.4049 22.272C73.4049 19.856 75.2449 18.336 77.3729 18.336C79.5169 18.336 81.2609 19.856 81.2609 22.144ZM75.5969 21.584H79.1489C79.0849 20.704 78.3649 20.144 77.4209 20.144C76.5569 20.144 75.8209 20.576 75.5969 21.584ZM91.0806 26.192C88.8406 26.192 86.8726 24.64 86.8726 22.112V14.976H89.0966V21.968C89.0966 23.472 90.0566 24.08 91.0806 24.08C92.1206 24.08 93.0806 23.472 93.0806 21.968V14.976H95.3046V22.112C95.3046 24.64 93.3366 26.192 91.0806 26.192ZM100.009 26.192C98.4405 26.192 96.9205 25.296 96.9045 23.648H98.8725C98.8725 24.08 99.2405 24.544 99.9765 24.544C100.585 24.544 101.049 24.24 101.049 23.808C101.049 23.488 100.793 23.328 100.233 23.184L99.2405 22.944C97.3205 22.432 97.0645 21.36 97.0645 20.576C97.0645 19.424 98.2645 18.336 99.9925 18.336C101.353 18.336 102.953 18.992 102.937 20.768H100.937C100.937 20.256 100.521 19.984 100.025 19.984C99.5445 19.984 99.1605 20.256 99.1605 20.64C99.1605 20.992 99.4805 21.168 99.8965 21.28L101.129 21.6C102.921 22.08 103.145 23.2 103.145 23.808C103.145 25.376 101.545 26.192 100.009 26.192ZM112.198 22.144C112.198 22.352 112.182 22.608 112.15 22.944H106.534C106.758 23.824 107.462 24.336 108.454 24.336C109.222 24.336 109.958 23.984 110.422 23.456L111.638 24.688C110.934 25.632 109.638 26.192 108.326 26.192C106.022 26.192 104.342 24.576 104.342 22.272C104.342 19.856 106.182 18.336 108.31 18.336C110.454 18.336 112.198 19.856 112.198 22.144ZM106.534 21.584H110.086C110.022 20.704 109.302 20.144 108.358 20.144C107.494 20.144 106.758 20.576 106.534 21.584ZM118.094 18.336C118.494 18.336 118.942 18.4 119.278 18.576L118.798 20.576C118.35 20.336 117.982 20.304 117.726 20.304C116.654 20.304 115.918 21.312 115.918 23.44V26H113.822V18.528H115.902V20.128C116.318 18.88 117.166 18.336 118.094 18.336ZM126.734 22.304H125.022L125.006 21.984C124.894 20.752 125.198 19.952 126.526 19.408L127.102 19.184C127.678 18.944 127.934 18.432 127.934 18C127.934 17.216 127.39 16.784 126.622 16.784C125.934 16.784 125.278 17.296 125.246 18.176H123.31C123.31 15.984 124.766 14.784 126.654 14.784C128.558 14.784 129.934 15.968 129.934 17.888C129.934 19.44 129.022 20.544 127.79 20.976C127.182 21.184 126.734 21.344 126.734 22V22.304ZM125.87 26.144C125.15 26.144 124.542 25.6 124.542 24.848C124.542 24.096 125.15 23.568 125.87 23.568C126.606 23.568 127.214 24.096 127.214 24.848C127.214 25.6 126.606 26.144 125.87 26.144Z" fill="black"/>
</svg>
